<svg xmlns="http://www.w3.org/2000/svg" data-name="Layer 1" viewBox="0 0 64 64"><path fill="#f5af36" d="M9,18H61a0,0,0,0,1,0,0V46a4,4,0,0,1-4,4H13a4,4,0,0,1-4-4V18A0,0,0,0,1,9,18Z"/><path fill="#2297c9" d="M61,16v2H9V12a4,4,0,0,1,4-4H25.87A4,4,0,0,1,29,9.49l.82,1A4,4,0,0,0,32.92,12H57A4,4,0,0,1,61,16Z"/><path fill="#ffe042" d="M3,24H55a0,0,0,0,1,0,0V52a4,4,0,0,1-4,4H7a4,4,0,0,1-4-4V24A0,0,0,0,1,3,24Z"/><path fill="#e8f6fa" d="M40,39.08a4.49,4.49,0,0,1-4.55,4.42H21.94a3.83,3.83,0,1,1,0-7.66,4,4,0,0,1,2.25.7A5.29,5.29,0,0,1,23.94,35a5.6,5.6,0,0,1,11.19-.28h.32A4.49,4.49,0,0,1,40,39.08Z"/><rect width="52" height="3" x="3" y="24" fill="#f5be36"/><path fill="#38b7ec" d="M55,22v2H3V18a4,4,0,0,1,4-4H19.87A4,4,0,0,1,23,15.49l.82,1A4,4,0,0,0,26.92,18H51A4,4,0,0,1,55,22Z"/><path fill="#6279a3" d="M34.78,45.88a1,1,0,0,0-1.4-.16L30,48.42V36.5a1,1,0,0,0-2,0V48.42l-3.38-2.7a1,1,0,0,0-1.24,1.56l5,4a1,1,0,0,0,1.24,0l5-4A1,1,0,0,0,34.78,45.88Z"/></svg>