<?xml version="1.0" encoding="UTF-8" standalone="no"?>
<!DOCTYPE svg PUBLIC "-//W3C//DTD SVG 1.1//EN" "http://www.w3.org/Graphics/SVG/1.1/DTD/svg11.dtd">
<svg width="100%" height="100%" viewBox="0 0 924 840" version="1.1" xmlns="http://www.w3.org/2000/svg" xmlns:xlink="http://www.w3.org/1999/xlink" xml:space="preserve" xmlns:serif="http://www.serif.com/" style="fill-rule:evenodd;clip-rule:evenodd;stroke-linejoin:round;stroke-miterlimit:2;">
    <rect id="Box" x="0" y="0" width="924" height="840" style="fill:none;"/>
    <g>
        <path d="M902,76.682L845.318,20L217.38,20L22,215.38L22,763.318L78.682,820L845.318,820L902,763.318L902,76.682Z" style="fill:rgb(69,36,69);"/>
        <g>
            <g transform="matrix(12.6879,0,0,12.655,-9925.47,-3632.71)">
                <g transform="matrix(12,0,0,12,790.255,332.948)">
                    <path d="M0.819,-0.705C0.824,-0.695 0.828,-0.686 0.829,-0.678C0.83,-0.67 0.83,-0.658 0.83,-0.643L0.83,-0.088C0.83,-0.042 0.817,-0.015 0.792,-0.007C0.779,-0.003 0.763,-0.001 0.744,-0.001C0.725,-0.001 0.709,-0.003 0.698,-0.006C0.687,-0.009 0.678,-0.013 0.672,-0.018C0.666,-0.023 0.661,-0.029 0.658,-0.038C0.655,-0.049 0.653,-0.067 0.653,-0.09L0.653,-0.425C0.636,-0.404 0.612,-0.372 0.58,-0.327C0.548,-0.282 0.528,-0.253 0.519,-0.242C0.51,-0.231 0.504,-0.223 0.501,-0.219C0.498,-0.214 0.49,-0.208 0.477,-0.201C0.464,-0.193 0.45,-0.189 0.435,-0.189C0.42,-0.189 0.406,-0.193 0.394,-0.2C0.381,-0.206 0.372,-0.213 0.367,-0.22L0.359,-0.231C0.346,-0.248 0.319,-0.283 0.28,-0.338C0.241,-0.392 0.219,-0.421 0.216,-0.425L0.216,-0.088C0.216,-0.073 0.216,-0.061 0.215,-0.054C0.214,-0.046 0.21,-0.037 0.205,-0.028C0.195,-0.01 0.169,-0.001 0.127,-0.001C0.086,-0.001 0.061,-0.01 0.051,-0.028C0.046,-0.037 0.043,-0.046 0.042,-0.054C0.041,-0.062 0.04,-0.074 0.04,-0.09L0.04,-0.645C0.04,-0.66 0.041,-0.672 0.042,-0.68C0.043,-0.687 0.046,-0.696 0.051,-0.706C0.061,-0.723 0.087,-0.732 0.129,-0.732C0.147,-0.732 0.163,-0.73 0.176,-0.726C0.189,-0.721 0.197,-0.717 0.201,-0.712L0.207,-0.706L0.434,-0.408C0.547,-0.558 0.623,-0.657 0.661,-0.705C0.672,-0.723 0.699,-0.732 0.742,-0.732C0.784,-0.732 0.81,-0.723 0.819,-0.705Z" style="fill:white;fill-rule:nonzero;"/>
                </g>
                <g transform="matrix(12,0,0,12,800.695,332.948)">
                    <path d="M0.217,-0.177L0.525,-0.177C0.54,-0.177 0.552,-0.177 0.56,-0.176C0.567,-0.175 0.576,-0.171 0.586,-0.166C0.604,-0.157 0.613,-0.131 0.613,-0.088C0.613,-0.041 0.601,-0.014 0.576,-0.006C0.565,-0.002 0.547,-0 0.524,-0L0.128,-0C0.081,-0 0.054,-0.013 0.046,-0.038C0.042,-0.049 0.04,-0.066 0.04,-0.089L0.04,-0.645C0.04,-0.679 0.046,-0.702 0.059,-0.715C0.072,-0.727 0.096,-0.733 0.131,-0.733L0.525,-0.733C0.54,-0.733 0.552,-0.732 0.56,-0.732C0.567,-0.731 0.576,-0.727 0.586,-0.722C0.604,-0.713 0.613,-0.687 0.613,-0.644C0.613,-0.597 0.601,-0.57 0.576,-0.562C0.565,-0.558 0.547,-0.556 0.524,-0.556L0.217,-0.556L0.217,-0.455L0.415,-0.455C0.43,-0.455 0.442,-0.455 0.45,-0.454C0.457,-0.452 0.466,-0.449 0.476,-0.444C0.494,-0.435 0.503,-0.409 0.503,-0.366C0.503,-0.319 0.49,-0.292 0.465,-0.284C0.454,-0.28 0.436,-0.278 0.413,-0.278L0.217,-0.278L0.217,-0.177Z" style="fill:white;fill-rule:nonzero;"/>
                </g>
                <g transform="matrix(12,0,0,12,808.351,332.948)">
                    <path d="M0.088,-0.734L0.644,-0.734C0.665,-0.734 0.681,-0.732 0.691,-0.727C0.701,-0.721 0.708,-0.714 0.711,-0.703C0.714,-0.692 0.716,-0.678 0.716,-0.661C0.716,-0.644 0.714,-0.63 0.711,-0.62C0.708,-0.609 0.702,-0.602 0.694,-0.598C0.682,-0.592 0.665,-0.589 0.643,-0.589L0.452,-0.589L0.452,-0.086C0.452,-0.071 0.452,-0.059 0.451,-0.052C0.45,-0.045 0.447,-0.036 0.442,-0.027C0.436,-0.017 0.428,-0.01 0.415,-0.006C0.402,-0.002 0.386,-0 0.365,-0C0.344,-0 0.328,-0.002 0.316,-0.006C0.303,-0.01 0.295,-0.017 0.29,-0.027C0.285,-0.036 0.282,-0.045 0.281,-0.053C0.28,-0.06 0.279,-0.072 0.279,-0.087L0.279,-0.589L0.087,-0.589C0.066,-0.589 0.05,-0.592 0.04,-0.597C0.03,-0.602 0.023,-0.609 0.02,-0.62C0.017,-0.631 0.015,-0.645 0.015,-0.662C0.015,-0.679 0.017,-0.693 0.02,-0.704C0.023,-0.714 0.029,-0.721 0.037,-0.725C0.049,-0.731 0.066,-0.734 0.088,-0.734Z" style="fill:white;fill-rule:nonzero;"/>
                </g>
                <g transform="matrix(12,0,0,12,815.323,332.948)">
                    <path d="M0.463,-0.681L0.733,-0.123C0.744,-0.1 0.75,-0.083 0.75,-0.072C0.75,-0.048 0.731,-0.026 0.692,-0.007C0.669,0.004 0.652,0.01 0.639,0.01C0.626,0.01 0.615,0.007 0.607,0.001C0.598,-0.005 0.592,-0.011 0.589,-0.018C0.585,-0.025 0.58,-0.035 0.573,-0.048L0.521,-0.156L0.244,-0.156L0.192,-0.048C0.185,-0.035 0.18,-0.025 0.177,-0.019C0.173,-0.013 0.167,-0.007 0.159,-0.001C0.15,0.006 0.139,0.009 0.127,0.009C0.114,0.009 0.096,0.003 0.073,-0.008C0.034,-0.027 0.015,-0.048 0.015,-0.072C0.015,-0.083 0.021,-0.1 0.032,-0.123L0.302,-0.682C0.309,-0.697 0.321,-0.71 0.336,-0.719C0.35,-0.728 0.366,-0.733 0.383,-0.733C0.419,-0.733 0.446,-0.716 0.463,-0.681ZM0.382,-0.441L0.316,-0.304L0.449,-0.304L0.382,-0.441Z" style="fill:white;fill-rule:nonzero;"/>
                </g>
                <g transform="matrix(12,0,0,12,790.255,344.948)">
                    <path d="M0.088,-0.734L0.644,-0.734C0.665,-0.734 0.681,-0.732 0.691,-0.727C0.701,-0.721 0.708,-0.714 0.711,-0.703C0.714,-0.692 0.716,-0.678 0.716,-0.661C0.716,-0.644 0.714,-0.63 0.711,-0.62C0.708,-0.609 0.702,-0.602 0.694,-0.598C0.682,-0.592 0.665,-0.589 0.643,-0.589L0.452,-0.589L0.452,-0.086C0.452,-0.071 0.452,-0.059 0.451,-0.052C0.45,-0.045 0.447,-0.036 0.442,-0.027C0.436,-0.017 0.428,-0.01 0.415,-0.006C0.402,-0.002 0.386,-0 0.365,-0C0.344,-0 0.328,-0.002 0.316,-0.006C0.303,-0.01 0.295,-0.017 0.29,-0.027C0.285,-0.036 0.282,-0.045 0.281,-0.053C0.28,-0.06 0.279,-0.072 0.279,-0.087L0.279,-0.589L0.087,-0.589C0.066,-0.589 0.05,-0.592 0.04,-0.597C0.03,-0.602 0.023,-0.609 0.02,-0.62C0.017,-0.631 0.015,-0.645 0.015,-0.662C0.015,-0.679 0.017,-0.693 0.02,-0.704C0.023,-0.714 0.029,-0.721 0.037,-0.725C0.049,-0.731 0.066,-0.734 0.088,-0.734Z" style="fill:white;fill-rule:nonzero;"/>
                </g>
                <g transform="matrix(12,0,0,12,799.027,344.948)">
                    <path d="M0.217,-0.177L0.525,-0.177C0.54,-0.177 0.552,-0.177 0.56,-0.176C0.567,-0.175 0.576,-0.171 0.586,-0.166C0.604,-0.157 0.613,-0.131 0.613,-0.088C0.613,-0.041 0.601,-0.014 0.576,-0.006C0.565,-0.002 0.547,-0 0.524,-0L0.128,-0C0.081,-0 0.054,-0.013 0.046,-0.038C0.042,-0.049 0.04,-0.066 0.04,-0.089L0.04,-0.645C0.04,-0.679 0.046,-0.702 0.059,-0.715C0.072,-0.727 0.096,-0.733 0.131,-0.733L0.525,-0.733C0.54,-0.733 0.552,-0.732 0.56,-0.732C0.567,-0.731 0.576,-0.727 0.586,-0.722C0.604,-0.713 0.613,-0.687 0.613,-0.644C0.613,-0.597 0.601,-0.57 0.576,-0.562C0.565,-0.558 0.547,-0.556 0.524,-0.556L0.217,-0.556L0.217,-0.455L0.415,-0.455C0.43,-0.455 0.442,-0.455 0.45,-0.454C0.457,-0.452 0.466,-0.449 0.476,-0.444C0.494,-0.435 0.503,-0.409 0.503,-0.366C0.503,-0.319 0.49,-0.292 0.465,-0.284C0.454,-0.28 0.436,-0.278 0.413,-0.278L0.217,-0.278L0.217,-0.177Z" style="fill:white;fill-rule:nonzero;"/>
                </g>
                <g transform="matrix(12,0,0,12,806.683,344.948)">
                    <path d="M0.088,-0.734L0.644,-0.734C0.665,-0.734 0.681,-0.732 0.691,-0.727C0.701,-0.721 0.708,-0.714 0.711,-0.703C0.714,-0.692 0.716,-0.678 0.716,-0.661C0.716,-0.644 0.714,-0.63 0.711,-0.62C0.708,-0.609 0.702,-0.602 0.694,-0.598C0.682,-0.592 0.665,-0.589 0.643,-0.589L0.452,-0.589L0.452,-0.086C0.452,-0.071 0.452,-0.059 0.451,-0.052C0.45,-0.045 0.447,-0.036 0.442,-0.027C0.436,-0.017 0.428,-0.01 0.415,-0.006C0.402,-0.002 0.386,-0 0.365,-0C0.344,-0 0.328,-0.002 0.316,-0.006C0.303,-0.01 0.295,-0.017 0.29,-0.027C0.285,-0.036 0.282,-0.045 0.281,-0.053C0.28,-0.06 0.279,-0.072 0.279,-0.087L0.279,-0.589L0.087,-0.589C0.066,-0.589 0.05,-0.592 0.04,-0.597C0.03,-0.602 0.023,-0.609 0.02,-0.62C0.017,-0.631 0.015,-0.645 0.015,-0.662C0.015,-0.679 0.017,-0.693 0.02,-0.704C0.023,-0.714 0.029,-0.721 0.037,-0.725C0.049,-0.731 0.066,-0.734 0.088,-0.734Z" style="fill:white;fill-rule:nonzero;"/>
                </g>
                <g transform="matrix(12,0,0,12,815.455,344.948)">
                    <path d="M0.601,-0.124C0.611,-0.1 0.616,-0.083 0.616,-0.072C0.616,-0.047 0.595,-0.025 0.554,-0.008C0.533,0.001 0.516,0.006 0.503,0.006C0.49,0.006 0.479,0.003 0.471,-0.004C0.462,-0.01 0.456,-0.016 0.452,-0.023C0.445,-0.036 0.419,-0.096 0.374,-0.204L0.343,-0.202L0.217,-0.202L0.217,-0.089C0.217,-0.074 0.217,-0.062 0.216,-0.055C0.215,-0.047 0.211,-0.038 0.206,-0.028C0.197,-0.01 0.171,-0.001 0.128,-0.001C0.081,-0.001 0.054,-0.013 0.046,-0.038C0.042,-0.049 0.04,-0.067 0.04,-0.09L0.04,-0.645C0.04,-0.66 0.041,-0.672 0.042,-0.68C0.043,-0.687 0.046,-0.696 0.051,-0.706C0.06,-0.724 0.086,-0.733 0.129,-0.733L0.345,-0.733C0.404,-0.733 0.461,-0.712 0.516,-0.669C0.543,-0.648 0.565,-0.62 0.582,-0.585C0.599,-0.55 0.608,-0.51 0.608,-0.467C0.608,-0.392 0.583,-0.33 0.533,-0.281C0.548,-0.246 0.57,-0.193 0.601,-0.124ZM0.217,-0.379L0.345,-0.379C0.364,-0.379 0.384,-0.386 0.403,-0.401C0.422,-0.416 0.432,-0.438 0.432,-0.467C0.432,-0.496 0.422,-0.519 0.403,-0.534C0.384,-0.549 0.364,-0.556 0.343,-0.556L0.217,-0.556L0.217,-0.379Z" style="fill:white;fill-rule:nonzero;"/>
                </g>
                <g transform="matrix(12,0,0,12,823.027,344.948)">
                    <path d="M0.04,-0.645C0.04,-0.66 0.041,-0.672 0.042,-0.68C0.043,-0.687 0.046,-0.696 0.051,-0.706C0.06,-0.724 0.086,-0.733 0.129,-0.733C0.176,-0.733 0.203,-0.721 0.212,-0.696C0.215,-0.685 0.217,-0.667 0.217,-0.644L0.217,-0.088C0.217,-0.072 0.217,-0.06 0.216,-0.053C0.215,-0.046 0.211,-0.037 0.206,-0.027C0.197,-0.009 0.171,-0 0.128,-0C0.081,-0 0.054,-0.013 0.046,-0.038C0.042,-0.049 0.04,-0.066 0.04,-0.089L0.04,-0.645Z" style="fill:white;fill-rule:nonzero;"/>
                </g>
                <g transform="matrix(12,0,0,12,826.111,344.948)">
                    <path d="M0.051,-0.103C0.034,-0.124 0.025,-0.143 0.025,-0.161C0.025,-0.178 0.039,-0.2 0.068,-0.228C0.085,-0.244 0.102,-0.252 0.121,-0.252C0.14,-0.252 0.166,-0.235 0.199,-0.202C0.208,-0.191 0.222,-0.18 0.239,-0.17C0.256,-0.159 0.272,-0.154 0.287,-0.154C0.349,-0.154 0.38,-0.179 0.38,-0.23C0.38,-0.245 0.372,-0.258 0.355,-0.269C0.337,-0.279 0.316,-0.286 0.291,-0.291C0.266,-0.296 0.238,-0.303 0.209,-0.314C0.18,-0.324 0.152,-0.336 0.127,-0.35C0.102,-0.364 0.081,-0.386 0.064,-0.417C0.047,-0.447 0.038,-0.483 0.038,-0.526C0.038,-0.585 0.06,-0.636 0.104,-0.68C0.147,-0.723 0.207,-0.745 0.282,-0.745C0.322,-0.745 0.359,-0.74 0.392,-0.73C0.425,-0.719 0.447,-0.709 0.46,-0.698L0.485,-0.679C0.506,-0.66 0.516,-0.643 0.516,-0.63C0.516,-0.617 0.508,-0.598 0.492,-0.575C0.469,-0.542 0.446,-0.525 0.422,-0.525C0.408,-0.525 0.391,-0.532 0.37,-0.545C0.368,-0.546 0.364,-0.55 0.359,-0.555C0.353,-0.56 0.348,-0.565 0.343,-0.568C0.329,-0.577 0.311,-0.581 0.29,-0.581C0.268,-0.581 0.25,-0.576 0.236,-0.566C0.221,-0.555 0.214,-0.541 0.214,-0.523C0.214,-0.504 0.223,-0.489 0.24,-0.478C0.257,-0.467 0.278,-0.459 0.303,-0.455C0.328,-0.451 0.356,-0.445 0.386,-0.437C0.416,-0.428 0.444,-0.418 0.469,-0.406C0.494,-0.394 0.516,-0.373 0.533,-0.344C0.55,-0.314 0.558,-0.277 0.558,-0.234C0.558,-0.191 0.549,-0.153 0.532,-0.12C0.515,-0.087 0.492,-0.061 0.464,-0.043C0.41,-0.008 0.352,0.01 0.291,0.01C0.26,0.01 0.23,0.006 0.202,-0.002C0.174,-0.009 0.151,-0.019 0.134,-0.03C0.099,-0.051 0.074,-0.072 0.06,-0.092L0.051,-0.103Z" style="fill:white;fill-rule:nonzero;"/>
                </g>
            </g>
            <g>
                <path d="M809.091,615.737L691.71,662.567L691.71,740.13L809.091,740.13L809.091,615.737Z" style="fill:rgb(247,37,16);"/>
                <path d="M809.091,479.636L691.71,450.367L691.71,647.933L809.091,601.102L809.091,479.636Z" style="fill:rgb(249,132,2);"/>
                <path d="M809.091,265.016L691.71,338.239L691.71,435.732L809.091,465.001L809.091,265.016Z" style="fill:rgb(252,255,0);"/>
                <path d="M820.462,99.87L606.976,233.044L606.976,376.462L820.462,243.288L820.462,99.87Z" style="fill:rgb(54,254,0);"/>
            </g>
        </g>
    </g>
</svg>
