<?xml version="1.0" encoding="UTF-8" standalone="no"?>
<!DOCTYPE svg PUBLIC "-//W3C//DTD SVG 1.1//EN" "http://www.w3.org/Graphics/SVG/1.1/DTD/svg11.dtd">
<svg width="100%" height="100%" viewBox="0 0 1800 800" version="1.1" xmlns="http://www.w3.org/2000/svg" xmlns:xlink="http://www.w3.org/1999/xlink" xml:space="preserve" xmlns:serif="http://www.serif.com/" style="fill-rule:evenodd;clip-rule:evenodd;stroke-linejoin:round;stroke-miterlimit:2;">
    <rect id="Site-Header" x="0" y="0" width="1800" height="800" style="fill:none;"/>
    <clipPath id="_clip1">
        <rect x="0" y="0" width="1800" height="800"/>
    </clipPath>
    <g clip-path="url(#_clip1)">
        <g>
            <path d="M1800,28.111L1743.32,-28.571L195.38,-28.571L-0,166.809L-0,771.889L56.682,828.571L1743.32,828.571L1800,771.889L1800,28.111Z" style="fill:rgb(30,30,51);"/>
            <path d="M1740,56.682L1683.32,0L255.38,0L60,195.38L60,743.318L116.682,800L1683.32,800L1740,743.318L1740,56.682Z" style="fill:rgb(69,36,69);"/>
            <g>
                <path d="M846.488,124.645C848.172,127.794 849.172,130.628 849.487,133.147C849.803,135.665 849.961,139.339 849.961,144.166L849.961,318.911C849.961,333.394 845.962,341.896 837.965,344.414C833.967,345.674 828.916,346.304 822.813,346.304C816.71,346.304 811.869,345.779 808.292,344.729C804.714,343.68 801.978,342.42 800.084,340.951C798.19,339.482 796.717,337.383 795.665,334.654C794.612,331.086 794.086,325.628 794.086,318.281L794.086,212.805C788.825,219.312 781.144,229.65 771.042,243.818C760.94,257.987 754.522,266.855 751.786,270.423C749.05,273.992 747.156,276.458 746.104,277.822C745.051,279.187 742.473,281.076 738.37,283.49C734.266,285.904 729.846,287.111 725.111,287.111C720.376,287.111 716.062,286.009 712.169,283.805C708.275,281.601 705.487,279.449 703.803,277.35L701.278,273.887C697.069,268.639 688.756,257.462 676.34,240.355C663.923,223.248 657.189,214.064 656.136,212.805L656.136,318.911C656.136,323.739 655.978,327.36 655.663,329.774C655.347,332.187 654.347,334.864 652.664,337.802C649.507,343.47 641.3,346.304 628.041,346.304C615.204,346.304 607.207,343.47 604.05,337.802C602.366,334.864 601.367,332.135 601.051,329.616C600.735,327.097 600.577,323.319 600.577,318.281L600.577,143.537C600.577,138.709 600.735,135.088 601.051,132.674C601.367,130.26 602.366,127.479 604.05,124.331C607.207,118.873 615.414,116.144 628.673,116.144C634.355,116.144 639.248,116.827 643.351,118.191C647.455,119.555 650.138,120.972 651.401,122.441L653.295,124.331L724.953,218.157C760.73,170.929 784.616,139.758 796.612,124.645C800.189,118.978 808.66,116.144 822.024,116.144C835.387,116.144 843.542,118.978 846.488,124.645Z" style="fill:rgb(255,145,255);fill-rule:nonzero;"/>
                <path d="M931.089,290.889L1028.32,290.889C1033.16,290.889 1036.79,291.046 1039.21,291.361C1041.63,291.676 1044.42,292.673 1047.57,294.352C1053.26,297.291 1056.1,305.477 1056.1,318.911C1056.1,333.604 1052.2,342.21 1044.42,344.729C1040.84,345.989 1035.37,346.618 1028,346.618L902.994,346.618C888.263,346.618 879.634,342.63 877.109,334.654C875.846,331.295 875.215,325.943 875.215,318.596L875.215,143.537C875.215,132.832 877.214,125.538 881.213,121.654C885.211,117.771 892.787,115.829 903.941,115.829L1028.32,115.829C1033.16,115.829 1036.79,115.987 1039.21,116.302C1041.63,116.617 1044.42,117.614 1047.57,119.293C1053.26,122.232 1056.1,130.418 1056.1,143.852C1056.1,158.545 1052.2,167.151 1044.42,169.67C1040.84,170.929 1035.37,171.559 1028,171.559L931.089,171.559L931.089,203.359L993.593,203.359C998.433,203.359 1002.06,203.517 1004.48,203.832C1006.9,204.146 1009.69,205.143 1012.85,206.823C1018.53,209.761 1021.37,217.948 1021.37,231.381C1021.37,246.075 1017.37,254.681 1009.38,257.199C1005.8,258.459 1000.33,259.089 992.962,259.089L931.089,259.089L931.089,290.889Z" style="fill:rgb(255,145,255);fill-rule:nonzero;"/>
                <path d="M1091.77,115.515L1267.28,115.515C1274.02,115.515 1278.96,116.302 1282.12,117.876C1285.28,119.45 1287.38,121.917 1288.43,125.275C1289.49,128.634 1290.01,133.042 1290.01,138.499C1290.01,143.957 1289.49,148.312 1288.43,151.566C1287.38,154.819 1285.59,157.076 1283.07,158.335C1279.28,160.224 1273.91,161.169 1266.97,161.169L1206.67,161.169L1206.67,319.541C1206.67,324.369 1206.52,327.937 1206.2,330.246C1205.88,332.555 1204.94,335.231 1203.36,338.275C1201.78,341.318 1198.99,343.47 1194.99,344.729C1191,345.989 1185.73,346.618 1179.21,346.618C1172.69,346.618 1167.48,345.989 1163.58,344.729C1159.69,343.47 1156.95,341.318 1155.38,338.275C1153.8,335.231 1152.85,332.502 1152.54,330.088C1152.22,327.675 1152.06,324.054 1152.06,319.226L1152.06,161.169L1091.45,161.169C1084.72,161.169 1079.77,160.381 1076.62,158.807C1073.46,157.233 1071.35,154.767 1070.3,151.408C1069.25,148.05 1068.72,143.642 1068.72,138.184C1068.72,132.727 1069.25,128.371 1070.3,125.118C1071.35,121.864 1073.14,119.608 1075.67,118.348C1079.46,116.459 1084.82,115.515 1091.77,115.515Z" style="fill:rgb(255,145,255);fill-rule:nonzero;"/>
                <path d="M1393.55,132.202L1478.79,307.891C1482.36,315.028 1484.15,320.38 1484.15,323.949C1484.15,331.505 1478.05,338.327 1465.84,344.414C1458.69,347.983 1453.06,349.767 1448.95,349.767C1444.85,349.767 1441.48,348.822 1438.85,346.933C1436.22,345.044 1434.33,343.05 1433.17,340.951C1432.01,338.852 1430.38,335.703 1428.28,331.505L1411.86,297.501L1324.42,297.501L1308.01,331.505C1305.9,335.703 1304.27,338.747 1303.11,340.636C1301.95,342.525 1300.06,344.467 1297.43,346.461C1294.8,348.455 1291.43,349.452 1287.33,349.452C1283.23,349.452 1277.6,347.668 1270.44,344.1C1258.23,338.222 1252.13,331.505 1252.13,323.949C1252.13,320.38 1253.92,315.028 1257.5,307.891L1342.73,131.887C1345.05,127.059 1348.57,123.176 1353.31,120.237C1358.04,117.299 1363.04,115.829 1368.3,115.829C1379.66,115.829 1388.08,121.287 1393.55,132.202ZM1367.98,207.767L1347.15,250.902L1389.13,250.902L1367.98,207.767Z" style="fill:rgb(255,145,255);fill-rule:nonzero;"/>
                <path d="M622.786,378.506L852.044,378.506C860.84,378.506 867.3,379.534 871.424,381.59C875.547,383.646 878.296,386.868 879.67,391.255C881.045,395.641 881.732,401.399 881.732,408.528C881.732,415.656 881.045,421.345 879.67,425.595C878.296,429.845 875.959,432.792 872.661,434.437C867.713,436.905 860.703,438.139 851.632,438.139L772.876,438.139L772.876,645.004C772.876,651.31 772.67,655.971 772.257,658.987C771.845,662.003 770.608,665.499 768.546,669.474C766.484,673.45 762.842,676.26 757.619,677.905C752.396,679.55 745.524,680.373 737.003,680.373C728.481,680.373 721.677,679.55 716.592,677.905C711.507,676.26 707.933,673.45 705.871,669.474C703.81,665.499 702.573,661.934 702.16,658.781C701.748,655.628 701.542,650.899 701.542,644.593L701.542,438.139L622.374,438.139C613.577,438.139 607.117,437.111 602.994,435.054C598.871,432.998 596.122,429.776 594.747,425.39C593.373,421.003 592.686,415.245 592.686,408.116C592.686,400.988 593.373,395.299 594.747,391.049C596.122,386.799 598.458,383.852 601.757,382.207C606.705,379.739 613.715,378.506 622.786,378.506Z" style="fill:white;fill-rule:nonzero;"/>
                <path d="M1135.73,629.376C1139.85,639.246 1141.91,646.375 1141.91,650.762C1141.91,661.18 1133.39,669.954 1116.35,677.083C1107.55,680.921 1100.48,682.84 1095.12,682.84C1089.76,682.84 1085.36,681.538 1081.92,678.933C1078.48,676.329 1075.94,673.655 1074.29,670.914C1071.54,665.704 1060.82,640.891 1042.13,596.475L1029.35,597.298L977.393,597.298L977.393,643.77C977.393,650.076 977.187,654.806 976.775,657.959C976.363,661.112 975.057,664.745 972.858,668.857C969.009,676.26 958.289,679.961 940.696,679.961C921.453,679.961 910.183,674.889 906.884,664.745C905.235,660.084 904.41,652.955 904.41,643.359L904.41,415.108C904.41,408.802 904.616,404.072 905.029,400.919C905.441,397.766 906.747,394.134 908.946,390.021C912.794,382.618 923.515,378.917 941.108,378.917L1030.17,378.917C1054.36,378.917 1077.87,387.69 1100.68,405.238C1111.68,413.737 1120.75,425.252 1127.89,439.784C1135.04,454.315 1138.62,470.491 1138.62,488.313C1138.62,519.295 1128.31,544.793 1107.69,564.808C1113.74,579.339 1123.09,600.862 1135.73,629.376ZM977.393,524.504L1030.17,524.504C1038.14,524.504 1046.12,521.488 1054.09,515.456C1062.06,509.424 1066.05,500.377 1066.05,488.313C1066.05,476.249 1062.06,467.133 1054.09,460.964C1046.12,454.795 1037.87,451.71 1029.35,451.71L977.393,451.71L977.393,524.504Z" style="fill:white;fill-rule:nonzero;"/>
                <path d="M1164.59,415.108C1164.59,408.802 1164.8,404.072 1165.21,400.919C1165.62,397.766 1166.93,394.134 1169.13,390.021C1172.98,382.618 1183.7,378.917 1201.29,378.917C1220.53,378.917 1231.94,383.989 1235.52,394.134C1236.89,398.794 1237.58,405.923 1237.58,415.519L1237.58,644.182C1237.58,650.762 1237.37,655.56 1236.96,658.576C1236.55,661.592 1235.24,665.156 1233.04,669.269C1229.19,676.671 1218.47,680.373 1200.88,680.373C1181.64,680.373 1170.37,675.163 1167.07,664.745C1165.42,660.358 1164.59,653.366 1164.59,643.77L1164.59,415.108Z" style="fill:white;fill-rule:nonzero;"/>
                <path d="M1275.1,638.013C1267.95,629.239 1264.38,621.356 1264.38,614.365C1264.38,607.374 1270.29,598.12 1282.11,586.605C1288.98,580.025 1296.27,576.734 1303.96,576.734C1311.66,576.734 1322.38,583.589 1336.12,597.298C1339.97,601.959 1345.47,606.414 1352.62,610.664C1359.77,614.913 1366.36,617.038 1372.41,617.038C1397.97,617.038 1410.76,606.62 1410.76,585.782C1410.76,579.476 1407.25,574.198 1400.24,569.949C1393.23,565.699 1384.51,562.614 1374.06,560.695C1363.61,558.776 1352.34,555.691 1340.25,551.442C1328.15,547.192 1316.88,542.188 1306.44,536.431C1295.99,530.673 1287.26,521.557 1280.25,509.082C1273.24,496.607 1269.74,481.596 1269.74,464.048C1269.74,439.921 1278.74,418.878 1296.75,400.919C1314.75,382.961 1339.29,373.982 1370.35,373.982C1386.84,373.982 1401.89,376.106 1415.5,380.356C1429.11,384.606 1438.52,388.924 1443.74,393.311L1454.05,401.125C1462.57,409.076 1466.83,415.793 1466.83,421.277C1466.83,426.76 1463.54,434.3 1456.94,443.896C1447.59,457.605 1437.97,464.46 1428.08,464.46C1422.3,464.46 1415.15,461.718 1406.63,456.234C1405.81,455.686 1404.23,454.315 1401.89,452.122C1399.56,449.928 1397.42,448.146 1395.5,446.775C1389.73,443.211 1382.37,441.429 1373.44,441.429C1364.51,441.429 1357.09,443.554 1351.17,447.803C1345.26,452.053 1342.31,457.948 1342.31,465.488C1342.31,473.028 1345.81,479.128 1352.82,483.789C1359.83,488.45 1368.56,491.603 1379.01,493.248C1389.45,494.893 1400.86,497.429 1413.23,500.856C1425.6,504.284 1437.01,508.465 1447.45,513.4C1457.9,518.335 1466.63,526.903 1473.64,539.104C1480.65,551.305 1484.15,566.316 1484.15,584.137C1484.15,601.959 1480.58,617.655 1473.43,631.227C1466.28,644.798 1456.94,655.286 1445.39,662.688C1423.13,677.22 1399.35,684.485 1374.06,684.485C1361.14,684.485 1348.91,682.909 1337.36,679.756C1325.82,676.603 1316.47,672.696 1309.32,668.035C1294.75,659.261 1284.58,650.762 1278.81,642.537L1275.1,638.013Z" style="fill:white;fill-rule:nonzero;"/>
                <g>
                    <path d="M506.273,584.415L395.681,628.537L395.681,701.613L506.273,701.613L506.273,584.415Z" style="fill:rgb(247,37,16);"/>
                    <path d="M506.273,456.186L395.681,428.61L395.681,614.749L506.273,570.627L506.273,456.186Z" style="fill:rgb(249,132,2);"/>
                    <path d="M506.273,253.981L395.681,322.968L395.681,414.822L506.273,442.398L506.273,253.981Z" style="fill:rgb(252,255,0);"/>
                    <path d="M516.986,98.387L315.848,223.858L315.848,358.981L516.986,233.509L516.986,98.387Z" style="fill:rgb(54,254,0);"/>
                </g>
            </g>
        </g>
    </g>
</svg>
